<svg width="128" height="64" viewBox="0 0 128 64" fill="none" xmlns="http://www.w3.org/2000/svg">
<path d="M0.682026 63.3387C1.12774 63.4321 1.7944 63.9612 2.85106 63.9612C4.28428 63.9612 5.49463 63.0201 5.49463 61.5812C5.49463 60.8489 5.11039 60.0836 4.04797 59.5673L2.71081 58.9101C1.51391 58.3133 1.02784 57.9563 1.02784 57.2624C1.02784 56.5685 1.6042 56.0834 2.37268 56.0834C3.98649 56.0834 4.40339 57.343 4.50137 58.403H4.7934V55.4902H4.52251C4.46162 55.73 4.3199 55.9442 4.11905 56.0999C3.63975 55.731 3.03854 55.5364 2.42263 55.5507C1.07779 55.5507 0.117193 56.4258 0.117193 57.526C0.117193 58.533 0.854934 59.3147 1.65415 59.7138L2.99899 60.3637C3.95959 60.8415 4.59743 61.3578 4.59743 61.9675C4.59743 62.8151 3.84624 63.4321 2.86835 63.4321C0.322762 63.4321 0.293944 61.0521 0.293944 61.0521H0V63.9685H0.278574C0.336178 63.7238 0.478239 63.5046 0.682026 63.346" fill="white"/>
<path d="M33.715 60.4878H30.8082L32.2549 57.2932L33.715 60.4878ZM30.5854 60.9785H33.9513L34.6199 62.4431C34.9542 63.1754 34.6891 63.45 33.5344 63.45V63.7283H37.3884V63.45C36.2356 63.45 36.1646 63.2248 35.7323 62.2966L32.6584 55.5503H32.4778L29.4154 62.304C28.9831 63.2322 28.9159 63.4573 27.7458 63.4573V63.7356H31.0004V63.4573C29.8476 63.4573 29.5806 63.1644 29.9149 62.4504L30.5854 60.9785Z" fill="white"/>
<path d="M63.9126 60.2496L65.4707 62.4466C65.9298 63.069 65.8876 63.4535 64.7329 63.4535V63.7318H68.6964V63.4535C67.7223 63.4535 67.2363 63.0287 66.6945 62.3001L64.608 59.3837L66.3736 57.2106C66.95 56.5222 67.2228 56.0572 68.3774 56.0572V55.7881H65.0807V56.0664C66.2334 56.0664 66.3179 56.4636 65.8184 57.0733L64.3026 58.9297L62.9808 57.0696C62.5485 56.4856 62.5639 56.0627 63.7185 56.0627V55.7881H59.7705V56.0664C60.7445 56.0664 61.2728 56.5442 61.7724 57.2197L63.5937 59.7828L61.5495 62.3001C61.0769 62.8695 60.5351 63.4535 59.5476 63.4535V63.7318H62.8578V63.4535C61.6897 63.4535 61.6897 62.9628 62.1066 62.4466L63.9126 60.2496Z" fill="white"/>
<path d="M94.1598 56.0743C96.5671 56.0743 97.4835 58.1156 97.4835 59.7596C97.4835 61.4036 96.5652 63.4321 94.1598 63.4321C91.7545 63.4321 90.8496 61.4036 90.8496 59.7596C90.8496 58.1156 91.7679 56.0743 94.1598 56.0743ZM98.8053 59.7596C98.8053 57.4528 96.7189 55.5488 94.1598 55.5488C91.6008 55.5488 89.5278 57.4437 89.5278 59.7596C89.5278 62.0755 91.6143 63.9703 94.1598 63.9703C96.7054 63.9703 98.8053 62.0755 98.8053 59.7596Z" fill="white"/>
<path d="M126.148 62.0914L120.807 55.7881H118.845V56.0664C119.998 56.0664 120.167 56.2787 120.167 57.6042V61.912C120.167 63.2374 120 63.4626 118.845 63.4626V63.7409H122.017V63.4626C120.865 63.4626 120.673 63.2374 120.673 61.912V57.2985L126.334 63.9661H126.655V57.5987C126.655 56.2732 126.836 56.0609 128 56.0609V55.7881H124.826V56.0664C125.979 56.0664 126.148 56.2787 126.148 57.6042V62.0914Z" fill="white"/>
<path d="M64.4062 10.175C64.3114 10.1681 64.2207 10.1354 64.1448 10.0809C64.0689 10.0264 64.0109 9.95232 63.9778 9.86741C63.9394 9.74475 63.9009 9.61843 63.8491 9.50126C63.7972 9.38409 63.8491 9.24679 64.0412 9.24679H64.8097C64.825 9.37616 64.8359 9.50554 64.8423 9.63491L65.7145 10.0908L66.0988 9.67885C66.1756 9.87291 66.2775 10.175 65.9912 10.175H64.4062ZM64.7655 9.01245H64.6367C64.6247 8.98644 64.6058 8.96383 64.5819 8.94683C64.558 8.92983 64.5299 8.91901 64.5003 8.91542C64.4542 8.90627 64.4331 8.97217 64.3793 8.98133C64.3142 8.9785 64.2514 8.95749 64.1987 8.92091C64.1957 8.88191 64.1957 8.84275 64.1987 8.80374C64.1987 8.62067 64.2909 8.1465 64.3716 8.1465L64.4197 7.96342L64.5388 8.06229C64.6418 8.3725 64.7176 8.69031 64.7655 9.01245ZM64.3966 7.52954C63.9048 7.2874 63.4411 6.99653 63.0133 6.66176C62.2179 5.99711 61.628 5.1381 61.3073 4.17742C61.4183 4.13632 61.5215 4.07819 61.6128 4.00533C61.7419 3.92526 61.8376 3.80485 61.8837 3.6648C62.2084 4.64243 62.6521 5.36741 63.7722 6.71302C63.8798 6.843 64.2564 7.43068 64.3908 7.52954H64.3966ZM62.5234 1.42945C62.3986 1.42945 62.2967 1.36171 62.2967 1.27933C62.2967 1.19694 62.3986 1.1292 62.5234 1.1292C62.6483 1.1292 62.7501 1.19694 62.7501 1.27933C62.7501 1.36171 62.6483 1.42945 62.5234 1.42945ZM62.12 7.45631C62.1555 7.45552 62.19 7.46801 62.216 7.49109L62.5081 6.94186C62.9874 7.28614 63.5126 7.56811 64.07 7.78035L63.9816 8.88979C63.9816 8.94288 63.8452 9.01794 63.7722 9.01611C63.6833 9.02115 63.5941 9.01437 63.5071 8.99597L63.2823 8.98133C63.2162 8.98499 63.1513 8.99923 63.0902 9.02343H61.6282C61.5621 9.02277 61.4967 9.03524 61.436 9.06005L61.0249 8.79093C61.0792 8.67313 61.1584 8.5672 61.2574 8.4797C61.29 8.44858 61.6185 8.05863 61.6416 8.03299L62.12 7.45631ZM61.1901 9.55435C61.2324 9.68434 61.4975 10.1768 61.1325 10.1768H59.5571C59.4614 10.1715 59.3694 10.1395 59.2925 10.0848C59.2157 10.0302 59.1574 9.9552 59.1248 9.86925C59.0826 9.73926 58.8174 9.24679 59.1844 9.24679H60.7578C60.8536 9.25211 60.9456 9.28409 61.0224 9.33877C61.0992 9.39344 61.1576 9.4684 61.1901 9.55435ZM70.2198 13.3477C69.3908 13.1195 68.5921 12.8013 67.8394 12.3994C66.8788 11.8501 66.0508 10.8688 65.703 10.4002H65.9893C66.058 10.4024 66.1262 10.3883 66.1878 10.3591C66.2494 10.3299 66.3023 10.2865 66.3418 10.2329C66.3813 10.1792 66.4061 10.117 66.414 10.0519C66.4219 9.98685 66.4126 9.9209 66.387 9.86009C66.3464 9.7209 66.2976 9.58398 66.241 9.45V9.33466C66.2415 8.85901 66.1815 8.38505 66.0623 7.92315C66.0373 7.7712 66.0104 7.62107 65.9797 7.47278L65.9009 7.07368L65.8625 6.80822C65.7875 5.4681 65.044 3.74536 63.6012 2.94165L63.4437 2.81899C63.0594 2.50044 62.7079 2.21118 62.7636 2.08669C62.8577 1.86334 63.4053 1.59788 64.2775 2.08669C64.1449 1.58506 63.7664 1.22807 63.1248 1.03217C63.0128 0.905471 62.8727 0.80409 62.7145 0.735378C62.5563 0.666667 62.3841 0.632344 62.2103 0.634898C61.8856 0.634898 61.607 0.82896 61.3054 1.09625C60.2449 2.03177 60.3736 4.32022 61.7876 6.19308L61.8452 7.4142C61.8126 7.4142 60.8962 8.69573 60.8962 8.69573C60.8763 8.73791 60.8417 8.77221 60.7982 8.79276C60.764 8.80772 60.7278 8.81818 60.6906 8.82388L60.2679 8.88613C60.1535 8.89075 60.0393 8.90114 59.926 8.91725C59.7492 8.94471 59.5417 9.01611 59.5264 9.01428C59.4963 9.01182 59.4661 9.01182 59.4361 9.01428H59.2017C59.1329 9.012 59.0647 9.0261 59.0032 9.05532C58.9416 9.08453 58.8887 9.12792 58.8492 9.18157C58.8097 9.23521 58.7848 9.2974 58.777 9.3625C58.7691 9.4276 58.7784 9.49354 58.804 9.55435C58.9327 9.95163 59.0557 10.4093 59.5821 10.4697C59.1267 11.1306 58.5235 11.4931 57.9145 11.8153C57.671 11.9552 57.4136 12.0717 57.146 12.1632C57.8322 12.1107 58.4951 11.9016 59.0787 11.5535C59.8241 11.1142 59.9951 10.6107 60.4236 10.4166H61.144C61.2233 10.4198 61.3019 10.4008 61.3701 10.3621C61.4383 10.3235 61.4933 10.2667 61.5282 10.1988C61.5848 10.2702 61.6588 10.3274 61.7439 10.3654C61.8289 10.4034 61.9224 10.421 62.0162 10.4166H62.8289C63.6358 11.1929 66.4273 13.5619 70.2255 13.3459L70.2198 13.3477ZM51.2863 10.8835C51.4678 11.0007 51.6572 11.1065 51.8531 11.2002L52.3315 11.4327L52.026 10.9842C51.7513 10.6894 51.1845 9.99191 52.0471 10.1384C52.5044 10.2171 52.8156 10.2738 53.0884 10.2976C53.3628 10.3095 53.6372 10.2754 53.8992 10.197L54.4275 10.045L53.8185 9.96994C53.6902 9.97665 53.5615 9.97174 53.4342 9.95529C53.1508 9.92319 52.8767 9.83861 52.6273 9.70631C52.2653 9.52281 51.8634 9.42191 51.4535 9.41156C51.3489 9.40507 51.244 9.41996 51.1459 9.45523C51.0478 9.4905 50.9588 9.54533 50.8848 9.61605C50.8107 9.68678 50.7534 9.77177 50.7166 9.86532C50.6798 9.95887 50.6645 10.0588 50.6715 10.1585C50.6832 10.3151 50.7566 10.4616 50.8771 10.5686C50.9981 10.6874 51.132 10.7936 51.2767 10.8853L51.2863 10.8835ZM49.4919 9.688C49.1961 10.0212 48.3085 11.2478 48.0895 11.5499C48.0857 11.5999 48.0857 11.65 48.0895 11.7C48.1054 11.9575 48.1705 12.21 48.2816 12.4451C48.5851 13.117 49.344 14.1459 51.2133 15.4018C52.6245 16.3759 54.1965 17.1184 55.8646 17.5987C56.3668 17.7414 56.881 17.8425 57.4015 17.9008L57.4457 17.8092C57.5834 17.5373 57.7501 17.2797 57.9433 17.0403C58.3871 16.4911 59.1229 15.9053 60.1796 15.9053C52.8502 16.2714 50.7926 13.2818 50.7657 13.2342L50.2527 12.4232L51.0001 13.0346C52.1163 13.7047 54.5639 14.7995 59.0999 14.4699C58.8093 14.205 58.4742 13.9884 58.1085 13.8292C57.9637 13.7742 57.8119 13.7378 57.657 13.7212L57.2978 13.6845L57.9875 13.1719C58.0163 13.15 58.5312 12.7618 59.0441 12.3042C54.1854 13.604 49.6303 12.0625 49.5688 9.82897C49.5688 9.7356 49.5688 9.64589 49.5688 9.56534L49.4919 9.688ZM49.9722 9.83629C50.0164 11.5865 54.0221 13.2745 58.9442 11.9563C59.853 11.7128 60.998 10.8249 60.998 10.8249C60.8712 11.5279 58.2392 13.485 58.2392 13.485C58.5024 13.5472 59.4111 14.1624 60.0105 14.7922L60.2334 15.0448C60.3811 15.2137 60.4886 15.411 60.5484 15.6233C60.6138 15.9688 60.5974 16.3237 60.5003 16.6623C60.4032 17.0009 60.228 17.3146 59.9874 17.5804C60.2103 17.0147 60.4312 16.3959 60.1949 16.3758C58.4236 16.2238 57.6705 18.3109 57.6705 18.3109C57.6705 18.3109 54.8079 18.2852 50.9943 15.7167C47.1807 13.1481 47.7283 11.4089 47.7283 11.4089C47.7283 11.4089 48.8502 9.84911 49.2037 9.45183C49.5572 9.05456 49.6514 8.41196 51.1903 8.13918C52.7292 7.8664 54.683 7.43617 55.3919 7.09931C57.1786 6.2535 57.1787 4.74678 57.1787 4.74678C57.536 6.52994 55.2863 7.72726 53.9798 8.07144C52.6734 8.41562 49.9453 8.47604 49.9818 9.83995L49.9722 9.83629ZM55.7723 9.17356C57.7262 7.91949 57.9375 6.45305 57.9414 6.42742L57.8568 5.8013L57.6647 6.35968C57.6219 6.45868 57.5731 6.55526 57.5187 6.64894C57.3708 6.90703 57.1991 7.1521 57.0057 7.38124C56.3453 8.15907 55.4896 8.76548 54.5178 9.14427C54.2258 9.26693 54.0221 9.34565 54.0221 9.34565L53.5111 9.52872L54.0778 9.61843C54.3938 9.639 54.7067 9.69053 55.0115 9.77221C55.3689 9.85643 55.7051 9.95529 55.8607 9.9736C56.2348 10.0431 56.6211 10.0255 56.9865 9.92234C57.1671 9.87663 57.3448 9.82101 57.5187 9.75574L58.2987 9.3072L57.4303 9.49028C56.7252 9.64772 56.4697 9.55252 56.293 9.44451L56.1316 9.34565C56.0704 9.30625 56.0062 9.27136 55.9395 9.24129C55.8867 9.21829 55.8321 9.19931 55.7762 9.18454L55.7723 9.17356ZM54.7522 11.5297C54.7911 11.5206 54.8312 11.5169 54.8713 11.5188C57.2248 11.5407 58.2142 9.9974 58.2238 9.98275L58.4851 9.36396L57.9971 9.81066C57.9971 9.81066 57.9375 9.86741 57.828 9.95163C57.6745 10.0711 57.5128 10.1806 57.3439 10.2793C56.8397 10.5835 56.2681 10.7715 55.6743 10.8286C55.2897 10.8527 54.9035 10.8398 54.5216 10.7901C54.3865 10.7618 54.2456 10.7716 54.1163 10.8184C53.987 10.8653 53.8748 10.947 53.7935 11.0537C53.7245 11.1301 53.6866 11.2276 53.6866 11.3284C53.6866 11.4291 53.7245 11.5266 53.7935 11.603C53.9349 11.7455 54.1074 11.8567 54.2988 11.9288C54.4792 12.0021 54.6647 12.0632 54.854 12.1119C55.0115 12.154 55.7877 12.2492 55.7877 12.2492L55.196 11.9087C55.0412 11.8314 54.9051 11.7241 54.7964 11.5938C54.776 11.5698 54.758 11.5441 54.7426 11.5169L54.7522 11.5297ZM71.2226 13.269C72.4964 12.9687 73.5165 11.852 71.4147 11.7934C69.361 11.7366 67.9566 10.5887 67.6722 10.0908C70.0411 10.8817 69.9642 10.2116 71.2611 10.1091C71.2611 10.1091 67.7453 7.92498 69.2284 4.69552C69.2284 4.69552 69.6972 8.1227 72.823 8.22156C72.823 8.22156 76.9401 8.36436 76.3196 10.3507C75.8969 11.7 75.1765 12.1998 73.4858 12.7124C72.7472 12.9482 71.9914 13.1317 71.2245 13.2616L71.2226 13.269ZM73.9296 11.7073C73.9296 11.7073 75.3148 11.5645 75.3532 10.6565C75.3916 9.74842 74.3138 9.44634 73.3494 10.0157C72.5271 10.5009 70.9633 10.7846 70.9633 10.7846C71.4666 10.9073 72.7884 10.8377 73.6895 10.6711C74.1217 10.5906 74.3484 10.8359 74.3407 11.0629C74.358 11.4712 73.9296 11.7092 73.9296 11.7092V11.7073ZM61.3073 17.055C61.3073 17.055 63.2977 15.345 65.4686 15.5446C67.3111 15.7149 68.2236 16.3208 68.2774 16.3575C66.1411 14.7098 66.314 14.2704 66.6732 14.4315C67.0824 14.6146 68.2851 14.9588 70.4522 15.0118C72.3734 15.0594 74.3196 13.9647 74.0391 14.0306C73.7029 14.1111 71.9008 14.8526 68.0392 14.2283C64.5061 13.6571 61.6474 10.4111 62.0297 10.9055C62.412 11.3998 65.5416 14.437 63.8932 15.2517C62.1257 16.1249 61.3073 17.055 61.3073 17.055ZM61.6013 13.2104C62.143 13.0273 62.6579 12.9175 63.0479 13.0493L63.5474 13.2177C63.5474 13.2177 63.1786 12.7948 63.1248 12.7435C63.0566 12.6774 62.9834 12.6162 62.9058 12.5605C62.6969 12.3969 62.4363 12.3054 62.1661 12.3005C61.7108 12.317 61.119 12.5916 60.5945 12.8497C60.3294 12.9797 60.072 13.1079 59.8414 13.2159C59.6704 13.3031 59.4864 13.3648 59.2958 13.3989L58.8597 13.4356C58.8597 13.4356 59.2593 13.6699 59.3073 13.69C59.3696 13.7131 59.4339 13.7309 59.4995 13.7431C59.72 13.7846 59.9472 13.7809 60.1661 13.7321C60.3944 13.6763 60.6179 13.6041 60.8347 13.5161C61.0768 13.4246 61.34 13.3184 61.6032 13.2269L61.6013 13.2104ZM49.93 15.6947C48.1894 16.2714 46.8003 19.0487 46.6178 20.7348C47.9992 18.5928 50.3065 17.2088 52.3814 17.1172C51.4477 16.6467 50.2681 15.9236 49.93 15.6947ZM63.63 36.4409C63.7319 36.4409 63.8222 36.3878 63.8222 36.32C63.8222 36.2523 63.7395 36.1974 63.63 36.1974C63.5205 36.1974 63.4379 36.2523 63.4379 36.32C63.4379 36.3878 63.5205 36.4409 63.63 36.4409ZM62.6522 38.6579C62.9095 39.4326 63.3838 40.1257 64.0239 40.6626C64.3686 40.9318 64.7421 41.1656 65.1382 41.3601C64.9595 41.1501 64.7934 40.9307 64.6406 40.7029C63.7376 39.6191 63.3784 39.0351 63.1171 38.246C63.0804 38.3593 63.0028 38.4566 62.8981 38.5206C62.8241 38.5797 62.7404 38.6268 62.6502 38.6598L62.6522 38.6579ZM64.7635 42.3615L64.8596 41.8856L64.8711 41.5542C64.4303 41.3877 64.0153 41.1648 63.6377 40.8914L63.4014 41.34C63.3804 41.3218 63.3529 41.312 63.3246 41.3125C63.3029 41.3124 63.2815 41.3181 63.2631 41.329L62.5138 42.2865C62.6233 42.3377 62.7905 42.4293 62.7905 42.4293C62.8251 42.3817 63.1325 42.4165 63.1017 42.6124C63.0767 42.5318 62.8827 42.4293 62.7943 42.5611C62.4056 42.4245 61.9785 42.4245 61.5897 42.5611C61.5679 42.5444 61.5421 42.533 61.5145 42.5282C61.487 42.5233 61.4586 42.525 61.4319 42.5332C61.4053 42.5414 61.3811 42.5557 61.3617 42.575C61.3423 42.5942 61.3283 42.6178 61.3208 42.6435C61.3208 42.6435 61.2381 42.5007 61.3976 42.4604L62.3486 42.2645L63.1171 41.2082L63.0306 40.2781C61.8914 38.7696 61.7876 36.9242 62.6464 36.1699C62.8904 35.9539 63.1132 35.8038 63.3764 35.8038C63.5166 35.8017 63.6556 35.8294 63.7832 35.8848C63.9108 35.9402 64.0238 36.0219 64.1142 36.1242C64.6367 36.2834 64.9422 36.5709 65.0498 36.9755C64.3467 36.5855 63.8971 36.7924 63.8298 36.9755C63.7857 37.0798 64.0758 37.3123 64.3774 37.5704L64.5061 37.6693C65.6684 38.3156 66.2679 39.7051 66.3274 40.7816L66.3581 40.994C66.6867 42.2938 66.629 42.973 66.629 42.973L66.2044 43.4271L65.5013 43.0609C65.5013 42.9382 65.484 42.8137 65.4686 42.6947C65.4298 42.3893 65.3597 42.0882 65.2592 41.7958L65.2458 41.7592L65.1632 41.7171L65.1478 41.9277C64.9557 41.9039 64.8846 42.3707 64.8846 42.3707L65.0978 42.4476C65.2073 42.4146 65.3495 42.4769 65.3361 42.5941C65.3226 42.5755 65.3052 42.5599 65.2851 42.548C65.265 42.5361 65.2425 42.5283 65.2191 42.5251C65.1957 42.5218 65.1718 42.5232 65.149 42.529C65.1261 42.5349 65.1048 42.5452 65.0863 42.5593C64.9836 42.513 64.8714 42.489 64.7578 42.489C64.6442 42.489 64.532 42.513 64.4293 42.5593C64.3466 42.4934 64.2736 42.5428 64.2564 42.6215C64.2564 42.6215 64.1776 42.4805 64.337 42.4677L64.7635 42.3615ZM60.0143 26.4779C59.6181 26.2828 59.2446 26.0484 58.9 25.7785C58.2597 25.2419 57.7853 24.5487 57.5283 23.7739C57.6184 23.7408 57.7021 23.6938 57.7761 23.6347C57.8806 23.5704 57.9581 23.4732 57.9952 23.3601C58.2564 24.1492 58.6157 24.7332 59.5168 25.817C59.6696 26.0453 59.8357 26.2654 60.0143 26.4761V26.4779ZM58.5024 21.5531C58.4005 21.5531 58.3198 21.5001 58.3198 21.4305C58.3198 21.3609 58.4005 21.3097 58.5024 21.3097C58.6042 21.3097 58.6945 21.3646 58.6945 21.4305C58.6945 21.4964 58.6119 21.5531 58.5024 21.5531ZM61.2132 26.1099L61.1805 25.8975C61.121 24.8174 60.5215 23.4278 59.3592 22.7852L59.2305 22.6864C58.9269 22.4282 58.6388 22.1957 58.683 22.0914C58.7598 21.9083 59.1998 21.6978 59.9029 22.0914C59.7953 21.6886 59.4899 21.3994 58.9673 21.2401C58.8768 21.1381 58.7637 21.0564 58.6361 21.001C58.5086 20.9457 58.3697 20.9179 58.2295 20.9197C57.9683 20.9197 57.7435 21.0771 57.4995 21.2859C56.6465 22.0401 56.7483 23.8855 57.8837 25.3941L57.9702 26.3241L57.2017 27.3805L56.2411 27.5782C56.0816 27.6166 56.1662 27.7612 56.1662 27.7612C56.1734 27.7354 56.1873 27.7116 56.2066 27.6922C56.2259 27.6727 56.25 27.6581 56.2767 27.6498C56.3034 27.6414 56.3319 27.6395 56.3596 27.6443C56.3872 27.649 56.4132 27.6603 56.4351 27.677C56.8241 27.5414 57.2508 27.5414 57.6397 27.677C57.7281 27.5416 57.9202 27.6477 57.9452 27.7283C57.9759 27.5306 57.6705 27.4958 57.6359 27.5452C57.6359 27.5452 57.4688 27.4555 57.3612 27.4024L58.1104 26.4449C58.1289 26.434 58.1502 26.4283 58.1719 26.4285C58.2002 26.4285 58.2275 26.4382 58.2488 26.4559L58.4831 26.0074C58.8608 26.2807 59.2757 26.5037 59.7166 26.6701L59.705 27.0015L59.6109 27.4775L59.1921 27.5818C59.0326 27.5946 59.1114 27.7356 59.1114 27.7356C59.1287 27.6569 59.2017 27.6075 59.2843 27.6734C59.387 27.6271 59.4992 27.6031 59.6128 27.6031C59.7264 27.6031 59.8386 27.6271 59.9413 27.6734C59.9598 27.6593 59.9812 27.649 60.004 27.6431C60.0269 27.6373 60.0507 27.6359 60.0741 27.6392C60.0975 27.6424 60.12 27.6502 60.1401 27.6621C60.1602 27.674 60.1776 27.6896 60.1911 27.7082C60.2026 27.5928 60.0624 27.5251 59.9509 27.5617L59.7377 27.4848C59.7377 27.4848 59.8049 27.0198 60.0009 27.0418L60.0163 26.8312L60.0989 26.8733L60.1104 26.9099C60.2107 27.2024 60.2808 27.5034 60.3198 27.8088C60.3352 27.9333 60.3467 28.0578 60.3525 28.175L61.0556 28.5412L61.4802 28.0871C61.4802 28.0871 61.534 27.4006 61.194 26.1044L61.2132 26.1099ZM69.5358 26.4706C69.1396 26.2754 68.7661 26.041 68.4215 25.7712C67.7895 25.2337 67.3227 24.5427 67.0709 23.772C67.1604 23.7389 67.2435 23.6919 67.3168 23.6329C67.422 23.5689 67.5002 23.4717 67.5378 23.3583C67.799 24.1473 68.1583 24.7313 69.0594 25.8152C69.2122 26.0435 69.3783 26.2636 69.5569 26.4742L69.5358 26.4706ZM68.0488 21.5531C67.947 21.5531 67.8567 21.5001 67.8567 21.4305C67.8567 21.3609 67.9393 21.3097 68.0488 21.3097C68.1583 21.3097 68.2409 21.3646 68.2409 21.4305C68.2409 21.4964 68.1583 21.5531 68.0488 21.5531ZM70.7596 26.1099L70.727 25.8975C70.6674 24.8174 70.068 23.4278 68.9057 22.7852L68.7769 22.6864C68.4753 22.4282 68.1852 22.1957 68.2294 22.0914C68.3043 21.9083 68.7462 21.6978 69.4494 22.0914C69.3418 21.6886 69.0363 21.3994 68.5137 21.2401C68.4232 21.1381 68.3101 21.0564 68.1826 21.001C68.055 20.9457 67.9162 20.9179 67.776 20.9197C67.5147 20.9197 67.2899 21.0771 67.0459 21.2859C66.191 22.0401 66.2947 23.8855 67.4302 25.3941L67.5166 26.3241L66.7482 27.3805L65.7876 27.5782C65.6281 27.6166 65.7126 27.7612 65.7126 27.7612C65.7199 27.7354 65.7338 27.7116 65.7531 27.6922C65.7724 27.6727 65.7965 27.6581 65.8232 27.6498C65.8499 27.6414 65.8784 27.6395 65.906 27.6443C65.9337 27.649 65.9596 27.6603 65.9816 27.677C66.3699 27.5417 66.796 27.5417 67.1843 27.677C67.2726 27.5416 67.4648 27.6477 67.4917 27.7283C67.5224 27.5306 67.2169 27.4958 67.1823 27.5452C67.1823 27.5452 67.0152 27.4555 66.9057 27.4024L67.655 26.4449C67.6728 26.4343 67.6934 26.4286 67.7145 26.4285C67.7428 26.4283 67.7701 26.4381 67.7914 26.4559L68.0277 26.0074C68.4048 26.2805 68.819 26.5034 69.2592 26.6701L69.2476 27.0015L69.1535 27.4775L68.7347 27.5818C68.5752 27.5946 68.654 27.7356 68.654 27.7356C68.6713 27.6569 68.7443 27.6075 68.8269 27.6734C68.9294 27.6263 69.0417 27.6019 69.1554 27.6019C69.2692 27.6019 69.3815 27.6263 69.4839 27.6734C69.5024 27.6593 69.5238 27.649 69.5466 27.6431C69.5695 27.6373 69.5933 27.6359 69.6167 27.6392C69.6401 27.6424 69.6626 27.6502 69.6827 27.6621C69.7028 27.674 69.7202 27.6896 69.7337 27.7082C69.7452 27.5928 69.605 27.5251 69.4955 27.5617L69.2822 27.4848C69.2822 27.4848 69.3764 27.0161 69.5685 27.0454L69.5838 26.8349L69.6665 26.877L69.6799 26.9136C69.7802 27.206 69.8503 27.5071 69.8893 27.8125C69.9047 27.937 69.9162 28.0615 69.922 28.1787L70.6251 28.5448L71.0497 28.0908C71.0497 28.0908 71.1035 27.4043 70.7635 26.1081L70.7596 26.1099ZM76.2658 32.7592C75.4339 30.8406 77.2571 29.5261 79.4204 27.3255C85.5144 21.2199 80.7114 14.5963 77.1207 14.2924C77.2321 14.1843 77.3378 14.0763 77.4339 13.9683C78.9881 12.2144 77.1937 12.2236 77.0285 10.4441C77.0043 10.5099 76.9851 10.5771 76.9709 10.6455C76.6615 12.1101 78.2946 12.3572 77.0669 13.7431C76.5367 14.3418 75.7874 14.8892 74.7845 15.464L73.8124 15.9986C72.1285 16.8951 70.3247 17.5695 68.4503 18.0033C68.4388 18.1205 68.4503 18.2431 68.7769 18.4592C69.1996 18.7411 70.8365 18.6148 70.8365 18.6148C74.31 17.9649 76.3907 19.964 76.3907 21.2602C76.3977 21.4273 76.3684 21.5939 76.3044 21.7496C76.2404 21.9052 76.1432 22.0466 76.019 22.1646C75.8948 22.2826 75.7462 22.3748 75.5826 22.4353C75.4191 22.4958 75.2441 22.5234 75.0689 22.5161C74.7222 22.5086 74.3919 22.3738 74.147 22.1398C73.9021 21.9058 73.7616 21.5906 73.7548 21.2602C73.7548 20.0702 75.0343 20.0025 75.0727 20.0043C74.189 19.5265 73.407 20.0153 73.0747 20.6909V19.1127H61.8491C65.3457 17.3113 65.9412 17.2472 66.0181 17.2252C67.1101 16.9033 68.2848 16.9466 69.3475 17.3479C69.3475 17.3479 68.75 16.2256 66.191 16.4838C64.1449 16.6907 61.0979 19.1311 59.5206 19.0853C57.6839 19.0322 57.6378 18.5068 57.6378 18.5068C57.6399 18.7205 57.7023 18.9298 57.8184 19.1127H54.4832V20.6927C54.4832 20.0519 53.0692 19.4826 52.1778 20.0043C52.5252 20.0109 52.8564 20.1453 53.1021 20.3794C53.3478 20.6135 53.4888 20.9292 53.4957 21.2602C53.496 21.4252 53.462 21.5886 53.3959 21.7411C53.3298 21.8936 53.2327 22.0322 53.1103 22.1488C52.9878 22.2655 52.8424 22.358 52.6824 22.421C52.5224 22.484 52.3509 22.5164 52.1778 22.5161C51.8304 22.5096 51.4991 22.3751 51.2535 22.141C51.0078 21.9069 50.8667 21.5913 50.8598 21.2602C50.8598 19.3324 53.0615 18.7576 55.0865 18.2834C55.0865 18.2834 50.881 18.1223 48.345 20.8684C47.846 21.4118 47.4454 22.0305 47.1596 22.6992C46.8945 23.1704 46.7392 23.6906 46.7043 24.2242C45.4862 22.8145 44.7831 17.4358 48.904 14.4828C47.7513 14.4059 41.4575 20.3046 48.1029 27.1937C49.588 28.7554 51.6802 29.9014 51.6802 32.3674C51.6802 35.6628 47.3863 35.52 46.3757 34.1378C47.5957 36.3347 54.487 35.3333 54.487 32.5853V38.8099C54.487 42.9895 56.5581 44.2838 58.7502 44.8624C59.8107 45.1425 60.9077 45.2578 61.8145 45.4793C62.7213 45.7009 63.3246 46.0048 63.5705 46.5888L63.7837 47.1032L63.997 46.5796C64.2429 45.9956 64.85 45.6899 65.753 45.4702C66.6559 45.2505 67.7568 45.1333 68.8269 44.8532C71.0171 44.2747 73.0881 42.9785 73.0881 38.8007V32.5633C73.5665 33.2535 74.9747 34.3099 75.9507 34.7383C73.6952 32.9753 72.6482 31.6553 72.6136 29.8849C72.8172 26.9557 76.6366 25.5277 77.3301 22.4484C77.7797 20.4346 75.9622 19.1036 75.0881 18.7027C75.7317 18.6459 77.4915 19.726 78.7499 21.2474C78.7582 22.7416 78.2194 24.1919 77.2264 25.3483C76.3945 26.3296 75.0669 27.494 74.7711 28.2226C74.4195 29.1636 74.5963 29.7787 74.5963 29.7787C74.5963 29.6762 74.9959 28.9183 75.3148 28.4386C75.6337 27.959 77.0323 26.8056 78.089 25.7474C79.0016 24.832 79.4338 23.3674 79.6106 22.5472C80.3157 23.9331 80.4079 25.4911 78.9977 26.8532C77.9257 27.8912 76.1274 29.2075 75.4435 30.7436C75.0593 31.604 75.0151 32.6146 75.6644 33.4897C77.236 35.6042 79.5395 35.7269 81.209 34.1414C80.5964 34.5247 79.8804 34.7307 79.1476 34.7346C78.1197 34.7749 76.869 34.1671 76.26 32.7647L76.2658 32.7592ZM48.3238 22.1024C48.4138 21.8571 48.5434 21.6267 48.7081 21.4195C48.9975 23.304 50.1567 25.352 52.1854 27.5635C49.8185 25.4856 48.5467 23.7079 48.3238 22.1024ZM54.4832 27.2285C53.8358 26.2582 52.099 24.9254 51.3171 23.5102C51.5572 23.7464 53.4803 24.3872 54.4832 22.8145V27.2285ZM58.6868 19.8597C59.6205 20.0702 60.1123 20.0757 60.7117 19.8597H72.2831V27.9791C71.6683 29.0666 71.6683 30.3585 72.2831 31.8548V35.65L63.7818 27.5489L55.2786 35.65V19.8688L58.6868 19.8597ZM68.677 44.1044C67.6204 44.3827 66.5272 44.498 65.6242 44.7196C64.8769 44.9026 64.1949 45.1681 63.778 45.6917C63.3611 45.1681 62.6771 44.9008 61.9317 44.7196C61.0287 44.498 59.9356 44.3845 58.877 44.1044C57.0115 43.6101 55.5187 42.8101 55.3151 39.5367L63.7684 31.4813L72.2217 39.5367C72.0411 42.8192 70.5464 43.6211 68.679 44.1136L68.677 44.1044ZM73.0727 27.2285V22.8237C74.0756 24.3963 75.9987 23.7556 76.2389 23.5194C75.4589 24.9346 73.7221 26.2674 73.0747 27.2377L73.0727 27.2285ZM73.0727 17.844C70.8999 18.0399 70.4561 18.1479 69.7548 18.104C71.2453 17.7773 72.6719 17.2274 73.9815 16.4746C75.211 16.1707 78.9113 17.368 80.7306 20.3924C80.3464 16.8536 77.9142 15.3945 76.0852 15.2663L76.9344 14.7171C80.7595 15.3084 83.1283 20.5169 80.6461 24.8595C81.1533 22.571 78.1255 17.3992 73.0785 17.8532L73.0727 17.844Z" fill="white"/>
</svg>
