<svg width="77" height="101" viewBox="0 0 77 101" fill="none" xmlns="http://www.w3.org/2000/svg">
<path d="M39.9245 20.7358C39.7285 20.7208 39.5409 20.6499 39.3839 20.5314C39.2269 20.4129 39.107 20.2519 39.0385 20.0673C38.959 19.8007 38.8796 19.5262 38.7723 19.2715C38.665 19.0168 38.7723 18.7184 39.1696 18.7184H40.7589C40.7907 18.9996 40.8132 19.2808 40.8264 19.562L42.6302 20.5528L43.4249 19.6575C43.5838 20.0793 43.7944 20.7358 43.2024 20.7358H39.9245ZM40.6675 18.209H40.4013C40.3764 18.1525 40.3374 18.1034 40.288 18.0664C40.2385 18.0295 40.1804 18.006 40.1192 17.9981C40.0238 17.9783 39.9801 18.1215 39.8689 18.1414C39.7342 18.1353 39.6044 18.0896 39.4954 18.0101C39.4891 17.9253 39.4891 17.8402 39.4954 17.7554C39.4954 17.3575 39.6861 16.3269 39.853 16.3269L39.9523 15.929L40.1987 16.1438C40.4116 16.8181 40.5684 17.5089 40.6675 18.209ZM39.9046 14.9859C38.8876 14.4596 37.9287 13.8274 37.044 13.0998C35.399 11.6551 34.1791 9.78808 33.5158 7.70001C33.7454 7.61069 33.9588 7.48434 34.1476 7.32597C34.4145 7.15194 34.6126 6.89024 34.7078 6.58584C35.3792 8.71073 36.297 10.2865 38.6134 13.2112C38.8359 13.4937 39.6146 14.771 39.8927 14.9859H39.9046ZM36.0308 1.72726C35.7726 1.72726 35.562 1.58003 35.562 1.40096C35.562 1.2219 35.7726 1.07467 36.0308 1.07467C36.2891 1.07467 36.4997 1.2219 36.4997 1.40096C36.4997 1.58003 36.2891 1.72726 36.0308 1.72726ZM35.1965 14.8267C35.27 14.825 35.3413 14.8522 35.3951 14.9023L35.9991 13.7086C36.9903 14.4569 38.0765 15.0697 39.2292 15.5311L39.0465 17.9424C39.0465 18.0578 38.7644 18.221 38.6134 18.217C38.4295 18.2279 38.2449 18.2132 38.0651 18.1732L37.6002 18.1414C37.4636 18.1494 37.3293 18.1803 37.2029 18.2329H34.1794C34.0428 18.2315 33.9075 18.2586 33.782 18.3125L32.9318 17.7276C33.0442 17.4715 33.2078 17.2413 33.4125 17.0511C33.4801 16.9835 34.1595 16.1359 34.2072 16.0802L35.1965 14.8267ZM33.2735 19.3869C33.3609 19.6694 33.9092 20.7398 33.1543 20.7398H29.8963C29.6983 20.7282 29.5081 20.6587 29.3492 20.5399C29.1903 20.4211 29.0697 20.2581 29.0024 20.0713C28.9149 19.7888 28.3666 18.7184 29.1255 18.7184H32.3795C32.5775 18.73 32.7677 18.7995 32.9266 18.9183C33.0856 19.0371 33.2062 19.2001 33.2735 19.3869ZM51.9472 27.6318C50.2329 27.1358 48.5812 26.4442 47.0245 25.5705C45.0379 24.3768 43.3255 22.2439 42.6064 21.2253H43.1984C43.3405 21.2302 43.4816 21.1996 43.6089 21.1361C43.7362 21.0726 43.8457 20.9783 43.9274 20.8617C44.0091 20.7451 44.0604 20.6099 44.0767 20.4684C44.093 20.3269 44.0738 20.1836 44.0208 20.0514C43.9369 19.7489 43.8361 19.4513 43.7189 19.1601V18.9094C43.7199 17.8755 43.5959 16.8454 43.3494 15.8414C43.2977 15.5112 43.2421 15.1849 43.1785 14.8625L43.0156 13.9951L42.9361 13.4181C42.7812 10.5053 41.2436 6.76093 38.2598 5.01406L37.934 4.74746C37.1393 4.05508 36.4123 3.42637 36.5275 3.15578C36.7222 2.67032 37.8545 2.09334 39.6583 3.15578C39.3842 2.06549 38.6015 1.28955 37.2744 0.863774C37.0429 0.588382 36.753 0.36803 36.4259 0.218684C36.0988 0.0693376 35.7427 -0.0052641 35.3832 0.000288737C34.7118 0.000288737 34.1356 0.422084 33.5119 1.00305C31.3187 3.03641 31.5849 8.01039 34.5091 12.0811L34.6283 14.7352C34.5608 14.7352 32.6656 17.5206 32.6656 17.5206C32.6245 17.6123 32.5529 17.6869 32.463 17.7315C32.3922 17.7641 32.3173 17.7868 32.2405 17.7992L31.3664 17.9345C31.1296 17.9445 30.8935 17.9671 30.6591 18.0021C30.2936 18.0618 29.8645 18.217 29.8327 18.213C29.7706 18.2077 29.7081 18.2077 29.646 18.213H29.1613C29.0191 18.2081 28.878 18.2387 28.7507 18.3022C28.6234 18.3657 28.5139 18.46 28.4323 18.5766C28.3506 18.6932 28.2992 18.8284 28.2829 18.9699C28.2666 19.1114 28.2858 19.2547 28.3388 19.3869C28.605 20.2504 28.8593 21.2452 29.948 21.3765C29.0063 22.813 27.7588 23.6008 26.4993 24.3012C25.9958 24.6052 25.4634 24.8584 24.91 25.0572C26.3292 24.9431 27.7001 24.4886 28.907 23.7322C30.4486 22.7772 30.8022 21.6829 31.6882 21.2611H33.1781C33.3422 21.2679 33.5046 21.2267 33.6457 21.1426C33.7868 21.0585 33.9004 20.9352 33.9727 20.7876C34.0897 20.9429 34.2428 21.0672 34.4187 21.1497C34.5946 21.2322 34.7879 21.2705 34.9819 21.2611H36.6626C38.3313 22.9483 44.1043 28.0973 51.9592 27.6278L51.9472 27.6318ZM12.7919 22.2758C13.1673 22.5305 13.5588 22.7604 13.964 22.9642L14.9533 23.4695L14.3216 22.4946C13.7534 21.854 12.5813 20.3379 14.3653 20.6562C15.3109 20.8274 15.9546 20.9507 16.5187 21.0024C17.0861 21.0282 17.6536 20.9541 18.1954 20.7836L19.288 20.4533L18.0285 20.2902C17.7632 20.3047 17.4972 20.2941 17.2339 20.2583C16.6478 20.1886 16.0809 20.0047 15.5652 19.7172C14.8164 19.3183 13.9854 19.099 13.1376 19.0765C12.9212 19.0624 12.7044 19.0948 12.5015 19.1714C12.2987 19.2481 12.1146 19.3673 11.9614 19.521C11.8083 19.6747 11.6898 19.8594 11.6137 20.0628C11.5377 20.2661 11.5059 20.4834 11.5205 20.7C11.5446 21.0403 11.6965 21.3588 11.9456 21.5914C12.1958 21.8497 12.4729 22.0805 12.7721 22.2798L12.7919 22.2758ZM9.08102 19.6774C8.46915 20.4016 6.63357 23.0676 6.18063 23.7242C6.17286 23.8328 6.17286 23.9419 6.18063 24.0505C6.21352 24.6101 6.34817 25.1589 6.57794 25.67C7.2057 27.1304 8.77508 29.3667 12.6409 32.0964C15.5593 34.2137 18.8104 35.8276 22.2599 36.8714C23.2986 37.1816 24.362 37.4013 25.4384 37.528L25.5298 37.329C25.8146 36.738 26.1594 36.178 26.5589 35.6578C27.4767 34.464 28.9984 33.1907 31.1836 33.1907C16.0261 33.9865 11.7708 27.4885 11.7152 27.385L10.6544 25.6223L12.1999 26.9513C14.5083 28.4077 19.5701 30.7873 28.9507 30.071C28.3499 29.4952 27.6569 29.0244 26.9006 28.6783C26.6012 28.5587 26.2872 28.4797 25.9669 28.4435L25.2239 28.3639L26.6502 27.2498C26.7098 27.202 27.7746 26.3584 28.8355 25.3636C18.7874 28.1888 9.36708 24.8384 9.23994 19.9838C9.23994 19.7808 9.23994 19.5858 9.23994 19.4108L9.08102 19.6774ZM10.0743 19.9997C10.1657 23.8038 18.4497 27.4726 28.6289 24.6076C30.5082 24.0783 32.8762 22.1484 32.8762 22.1484C32.6139 23.6764 27.1707 27.9302 27.1707 27.9302C27.715 28.0655 29.5943 29.4025 30.834 30.7713L31.2949 31.3205C31.6003 31.6875 31.8226 32.1165 31.9464 32.5779C32.0816 33.3287 32.0476 34.1003 31.8469 34.8362C31.6462 35.5722 31.2838 36.2539 30.7863 36.8316C31.2472 35.6021 31.7041 34.2571 31.2154 34.2133C27.5521 33.8831 25.9947 38.4193 25.9947 38.4193C25.9947 38.4193 20.0747 38.3636 12.188 32.7808C4.30133 27.198 5.43368 23.4178 5.43368 23.4178C5.43368 23.4178 7.75399 20.0275 8.48505 19.1641C9.2161 18.3006 9.41079 16.9039 12.5933 16.311C15.7758 15.7181 19.8164 14.783 21.2825 14.0508C24.9776 12.2124 24.9776 8.93754 24.9776 8.93754C25.7166 12.8133 21.064 15.4157 18.3623 16.1637C15.6605 16.9118 10.0187 17.0431 10.0942 20.0076L10.0743 19.9997ZM22.0692 18.5592C26.1099 15.8335 26.5469 12.6461 26.5549 12.5904L26.3801 11.2296L25.9828 12.4432C25.8942 12.6584 25.7934 12.8683 25.6808 13.0719C25.375 13.6329 25.0199 14.1655 24.62 14.6636C23.2542 16.3542 21.4845 17.6722 19.4748 18.4955C18.8708 18.7622 18.4497 18.9333 18.4497 18.9333L17.3928 19.3312L18.5649 19.5262C19.2183 19.5709 19.8654 19.6829 20.4959 19.8604C21.2349 20.0435 21.9302 20.2583 22.252 20.2981C23.0257 20.4491 23.8244 20.4109 24.5802 20.1867C24.9538 20.0874 25.3212 19.9665 25.6808 19.8246L27.2939 18.8497L25.498 19.2476C24.0399 19.5898 23.5115 19.3829 23.1459 19.1481L22.8122 18.9333C22.6857 18.8476 22.5529 18.7718 22.4149 18.7064C22.3057 18.6564 22.1928 18.6152 22.0772 18.5831L22.0692 18.5592ZM19.9595 23.6804C20.04 23.6605 20.123 23.6525 20.2058 23.6566C25.0729 23.7043 27.1191 20.3498 27.1389 20.318L27.6793 18.973L26.6701 19.944C26.6701 19.944 26.547 20.0673 26.3205 20.2504C26.0031 20.51 25.6686 20.748 25.3192 20.9626C24.2765 21.6237 23.0944 22.0324 21.8666 22.1564C21.0712 22.2088 20.2725 22.1808 19.4827 22.0728C19.2033 22.0112 18.9119 22.0326 18.6445 22.1344C18.377 22.2362 18.145 22.4139 17.9769 22.6458C17.8342 22.8119 17.7558 23.0237 17.7558 23.2427C17.7558 23.4618 17.8342 23.6735 17.9769 23.8396C18.2693 24.1493 18.626 24.3911 19.0218 24.5479C19.3949 24.707 19.7786 24.84 20.1701 24.9458C20.4959 25.0373 22.101 25.2442 22.101 25.2442L20.8773 24.5041C20.5573 24.336 20.2758 24.1029 20.0509 23.8197C20.0088 23.7675 19.9715 23.7116 19.9396 23.6526L19.9595 23.6804ZM54.0212 27.4607C56.6554 26.8081 58.7651 24.3808 54.4185 24.2534C50.1712 24.1301 47.2669 21.6351 46.6789 20.5528C51.5777 22.2718 51.4188 20.8154 54.1007 20.5926C54.1007 20.5926 46.8298 15.8454 49.8971 8.82612C49.8971 8.82612 50.8665 16.2752 57.3308 16.49C57.3308 16.49 65.8453 16.8004 64.562 21.1178C63.6879 24.0505 62.198 25.1368 58.7016 26.251C57.1742 26.7634 55.6111 27.1624 54.0252 27.4447L54.0212 27.4607ZM59.6194 24.0664C59.6194 24.0664 62.484 23.756 62.5635 21.7824C62.6429 19.8087 60.414 19.1521 58.4195 20.3896C56.719 21.4441 53.4849 22.0609 53.4849 22.0609C54.5258 22.3275 57.2593 22.1763 59.1227 21.8142C60.0167 21.6391 60.4855 22.1723 60.4696 22.6657C60.5054 23.5531 59.6194 24.0704 59.6194 24.0704V24.0664ZM33.5158 35.6896C33.5158 35.6896 37.632 31.973 42.1217 32.4068C45.9319 32.7768 47.8191 34.094 47.9304 34.1735C43.5123 30.5923 43.8698 29.6373 44.6128 29.9874C45.4591 30.3854 47.9463 31.1334 52.428 31.2488C56.4011 31.3523 60.4259 28.9727 59.8458 29.116C59.1505 29.2911 55.4237 30.9027 47.4377 29.5457C40.1311 28.3042 34.2191 21.2491 35.0097 22.3235C35.8004 23.3979 42.2726 29.9994 38.8637 31.7701C35.2084 33.6682 33.5158 35.6896 33.5158 35.6896ZM34.1237 27.3333C35.2442 26.9354 36.309 26.6967 37.1155 26.9832L38.1485 27.3492C38.1485 27.3492 37.3857 26.43 37.2744 26.3186C37.1335 26.175 36.9821 26.042 36.8215 25.9207C36.3896 25.5653 35.8507 25.3662 35.2918 25.3557C34.3502 25.3915 33.1265 25.9884 32.0418 26.5494C31.4935 26.8319 30.9611 27.1105 30.4843 27.3453C30.1307 27.5348 29.7502 27.669 29.356 27.7432L28.4541 27.8228C28.4541 27.8228 29.2805 28.3321 29.3798 28.3759C29.5086 28.426 29.6415 28.4646 29.7771 28.4913C30.2331 28.5814 30.7031 28.5733 31.1558 28.4674C31.6278 28.3459 32.09 28.189 32.5384 27.9978C33.0391 27.7989 33.5834 27.5681 34.1277 27.3691L34.1237 27.3333ZM9.98689 32.7331C6.38723 33.9865 3.51464 40.0229 3.13719 43.6878C5.99388 39.0321 10.7656 36.0239 15.0566 35.8249C13.1257 34.8023 10.6862 33.2305 9.98689 32.7331ZM38.3194 77.8252C38.5299 77.8252 38.7167 77.7098 38.7167 77.5626C38.7167 77.4154 38.5458 77.296 38.3194 77.296C38.0929 77.296 37.922 77.4154 37.922 77.5626C37.922 77.7098 38.0929 77.8252 38.3194 77.8252ZM36.297 82.644C36.8293 84.3278 37.8102 85.8343 39.1339 87.0012C39.8467 87.5863 40.6191 88.0945 41.4383 88.5173C41.0688 88.0608 40.7252 87.5839 40.4092 87.0888C38.5419 84.7331 37.7989 83.4637 37.2585 81.7487C37.1828 81.995 37.0223 82.2065 36.8056 82.3456C36.6526 82.4741 36.4794 82.5763 36.2931 82.648L36.297 82.644ZM40.6635 90.6939L40.8622 89.6593L40.886 88.9391C39.9743 88.5773 39.1162 88.0927 38.3353 87.4986L37.8466 88.4735C37.8031 88.4341 37.7463 88.4128 37.6876 88.4138C37.6427 88.4135 37.5987 88.4259 37.5605 88.4496L36.011 90.5308C36.2374 90.6422 36.5831 90.8411 36.5831 90.8411C36.6546 90.7377 37.2903 90.8133 37.2267 91.2391C37.1751 91.064 36.7738 90.8411 36.591 91.1276C35.7871 90.8307 34.9038 90.8307 34.0999 91.1276C34.0548 91.0912 34.0013 91.0666 33.9444 91.0561C33.8874 91.0455 33.8287 91.0492 33.7736 91.067C33.7184 91.0847 33.6685 91.1159 33.6284 91.1578C33.5883 91.1996 33.5591 91.2508 33.5437 91.3067C33.5437 91.3067 33.3728 90.9963 33.7026 90.9088L35.6693 90.483L37.2585 88.187L37.0797 86.1656C34.7237 82.8867 34.5091 78.8757 36.2851 77.2363C36.7897 76.7668 37.2506 76.4405 37.7949 76.4405C38.0849 76.4359 38.3722 76.4961 38.6361 76.6165C38.9 76.7369 39.1338 76.9147 39.3206 77.1368C40.4013 77.483 41.033 78.1077 41.2555 78.9871C39.8013 78.1396 38.8716 78.5892 38.7326 78.9871C38.6412 79.214 39.2411 79.7193 39.8649 80.2804L40.1311 80.4953C42.5349 81.8999 43.7745 84.9201 43.8977 87.2599L43.9612 87.7215C44.6406 90.5467 44.5214 92.023 44.5214 92.023L43.6434 93.0098L42.1892 92.214C42.1892 91.9474 42.1534 91.6768 42.1217 91.4181C42.0413 90.7543 41.8963 90.0999 41.6886 89.4643L41.6608 89.3848L41.4899 89.2932L41.4581 89.7508C41.0608 89.6991 40.9138 90.7138 40.9138 90.7138L41.3548 90.8809C41.5813 90.8093 41.8753 90.9446 41.8475 91.1993C41.8196 91.159 41.7837 91.125 41.7421 91.0992C41.7005 91.0734 41.654 91.0564 41.6056 91.0493C41.5572 91.0422 41.5079 91.0452 41.4606 91.058C41.4134 91.0708 41.3693 91.0931 41.331 91.1237C41.1186 91.0231 40.8866 90.9709 40.6516 90.9709C40.4166 90.9709 40.1846 91.0231 39.9722 91.1237C39.8013 90.9804 39.6504 91.0878 39.6146 91.2589C39.6146 91.2589 39.4517 90.9526 39.7815 90.9247L40.6635 90.6939ZM30.8419 56.1705C30.0225 55.7464 29.2501 55.2369 28.5375 54.6504C27.2132 53.484 26.2322 51.9774 25.7007 50.2932C25.887 50.2214 26.0602 50.1192 26.2132 49.9908C26.4292 49.851 26.5894 49.6398 26.6661 49.3939C27.2065 51.109 27.9495 52.3783 29.8129 54.734C30.1289 55.2304 30.4725 55.7086 30.8419 56.1665V56.1705ZM27.715 45.4665C27.5045 45.4665 27.3376 45.3511 27.3376 45.1999C27.3376 45.0487 27.5045 44.9372 27.715 44.9372C27.9256 44.9372 28.1124 45.0566 28.1124 45.1999C28.1124 45.3431 27.9415 45.4665 27.715 45.4665ZM33.3212 55.3707L33.2536 54.9091C33.1304 52.5614 31.8908 49.5412 29.4871 48.1445L29.2209 47.9296C28.5931 47.3685 27.9971 46.8632 28.0885 46.6364C28.2474 46.2384 29.1573 45.7808 30.6115 46.6364C30.389 45.7609 29.7572 45.1322 28.6766 44.786C28.4894 44.5643 28.2555 44.3869 27.9917 44.2665C27.7279 44.1461 27.4407 44.0857 27.1509 44.0897C26.6105 44.0897 26.1457 44.4319 25.6411 44.8855C23.877 46.5249 24.0876 50.536 26.4357 53.8148L26.6145 55.8362L25.0252 58.1322L23.0387 58.562C22.7089 58.6455 22.8837 58.9599 22.8837 58.9599C22.8987 58.9037 22.9275 58.852 22.9674 58.8097C23.0073 58.7674 23.0571 58.7358 23.1124 58.7176C23.1676 58.6994 23.2265 58.6953 23.2836 58.7057C23.3408 58.716 23.3946 58.7405 23.44 58.7769C24.2442 58.482 25.1268 58.482 25.9311 58.7769C26.1139 58.4824 26.5112 58.7132 26.5628 58.8883C26.6264 58.4585 25.9947 58.3829 25.9232 58.4903C25.9232 58.4903 25.5775 58.2954 25.355 58.18L26.9045 56.0989C26.9427 56.0752 26.9868 56.0628 27.0317 56.063C27.0901 56.0631 27.1465 56.0843 27.1906 56.1227L27.6753 55.1478C28.4562 55.7419 29.3144 56.2265 30.2261 56.5883L30.2022 57.3085L30.0076 58.3431L29.1414 58.5699C28.8116 58.5978 28.9745 58.9042 28.9745 58.9042C29.0103 58.7331 29.1613 58.6256 29.3321 58.7689C29.5445 58.6683 29.7766 58.6161 30.0115 58.6161C30.2465 58.6161 30.4785 58.6683 30.6909 58.7689C30.7292 58.7383 30.7733 58.716 30.8205 58.7032C30.8678 58.6904 30.9171 58.6875 30.9655 58.6946C31.014 58.7016 31.0604 58.7186 31.102 58.7444C31.1436 58.7702 31.1795 58.8043 31.2074 58.8445C31.2313 58.5938 30.9412 58.4466 30.7108 58.5262L30.2698 58.359C30.2698 58.359 30.4088 57.3483 30.8141 57.3961L30.8459 56.9385L31.0167 57.03L31.0406 57.1096C31.2479 57.7452 31.393 58.3996 31.4736 59.0634C31.5054 59.3339 31.5293 59.6045 31.5412 59.8592L32.9954 60.655L33.8734 59.6682C33.8734 59.6682 33.9847 58.176 33.2814 55.3587L33.3212 55.3707ZM50.5328 56.1546C49.7134 55.7305 48.941 55.221 48.2284 54.6345C46.9214 53.4663 45.956 51.9644 45.4353 50.2892C45.6203 50.2173 45.7922 50.1151 45.9438 49.9868C46.1613 49.8477 46.323 49.6364 46.4007 49.3899C46.9411 51.105 47.6841 52.3743 49.5475 54.73C49.8635 55.2264 50.2071 55.7046 50.5765 56.1625L50.5328 56.1546ZM47.4576 45.4665C47.247 45.4665 47.0603 45.3511 47.0603 45.1999C47.0603 45.0487 47.2311 44.9372 47.4576 44.9372C47.6841 44.9372 47.8549 45.0566 47.8549 45.1999C47.8549 45.3431 47.6841 45.4665 47.4576 45.4665ZM53.0637 55.3707L52.9962 54.9091C52.873 52.5614 51.6334 49.5412 49.2296 48.1445L48.9634 47.9296C48.3396 47.3685 47.7397 46.8632 47.8311 46.6364C47.986 46.2384 48.8998 45.7808 50.354 46.6364C50.1315 45.7609 49.4998 45.1322 48.4191 44.786C48.2319 44.5643 47.998 44.3869 47.7342 44.2665C47.4704 44.1461 47.1833 44.0857 46.8934 44.0897C46.3531 44.0897 45.8882 44.4319 45.3836 44.8855C43.6156 46.5249 43.8301 50.536 46.1782 53.8148L46.357 55.8362L44.7678 58.1322L42.7812 58.562C42.4514 58.6455 42.6262 58.9599 42.6262 58.9599C42.6412 58.9037 42.67 58.852 42.7099 58.8097C42.7499 58.7674 42.7997 58.7358 42.8549 58.7176C42.9101 58.6994 42.969 58.6953 43.0262 58.7057C43.0834 58.716 43.1371 58.7405 43.1825 58.7769C43.9855 58.4826 44.8666 58.4826 45.6697 58.7769C45.8524 58.4824 46.2498 58.7132 46.3054 58.8883C46.3689 58.4585 45.7372 58.3829 45.6657 58.4903C45.6657 58.4903 45.32 58.2954 45.0936 58.18L46.6431 56.0989C46.68 56.0757 46.7227 56.0633 46.7663 56.063C46.8248 56.0627 46.8813 56.084 46.9252 56.1227L47.4139 55.1478C48.1937 55.7414 49.0505 56.2259 49.9607 56.5883L49.9368 57.3085L49.7421 58.3431L48.876 58.5699C48.5462 58.5978 48.7091 58.9042 48.7091 58.9042C48.7449 58.7331 48.8959 58.6256 49.0667 58.7689C49.2787 58.6666 49.5109 58.6135 49.7461 58.6135C49.9814 58.6135 50.2136 58.6666 50.4255 58.7689C50.4638 58.7383 50.5079 58.716 50.5551 58.7032C50.6024 58.6904 50.6517 58.6875 50.7001 58.6946C50.7486 58.7016 50.795 58.7186 50.8366 58.7444C50.8782 58.7702 50.9141 58.8043 50.942 58.8445C50.9659 58.5938 50.6758 58.4466 50.4494 58.5262L50.0084 58.359C50.0084 58.359 50.203 57.3404 50.6003 57.404L50.6321 56.9464L50.803 57.0379L50.8308 57.1175C51.0382 57.7532 51.1832 58.4075 51.2639 59.0713C51.2957 59.3419 51.3195 59.6125 51.3314 59.8671L52.7856 60.663L53.6636 59.6762C53.6636 59.6762 53.7749 58.184 53.0716 55.3667L53.0637 55.3707ZM64.4507 69.8231C62.7303 65.6529 66.5009 62.7958 70.9746 58.0128C83.5774 44.7423 73.6446 30.3456 66.2188 29.685C66.4492 29.4502 66.6677 29.2155 66.8664 28.9807C70.0807 25.1686 66.3697 25.1885 66.028 21.3208C65.9781 21.4637 65.9382 21.6099 65.9089 21.7585C65.2692 24.9418 68.6464 25.479 66.1075 28.4913C65.0109 29.7925 63.4614 30.9822 61.3874 32.2317L59.377 33.3936C55.8947 35.3422 52.1642 36.808 48.288 37.7508C48.2641 38.0055 48.288 38.2721 48.9634 38.7416C49.8375 39.3544 53.2226 39.0799 53.2226 39.0799C60.4061 37.6673 64.709 42.0125 64.709 44.8298C64.7236 45.1929 64.6628 45.555 64.5305 45.8934C64.3982 46.2317 64.1973 46.5389 63.9404 46.7955C63.6834 47.052 63.3762 47.2524 63.0379 47.3839C62.6997 47.5154 62.3379 47.5752 61.9755 47.5595C61.2584 47.5432 60.5754 47.2502 60.069 46.7415C59.5626 46.2329 59.272 45.548 59.2578 44.8298C59.2578 42.2433 61.9039 42.0961 61.9834 42.1001C60.1557 41.0615 58.5387 42.124 57.8513 43.5923V40.1622H34.6363C41.8674 36.2467 43.099 36.1074 43.258 36.0597C45.5164 35.3599 47.9457 35.454 50.1434 36.3263C50.1434 36.3263 48.9078 33.887 43.6156 34.4481C39.3842 34.8978 33.0828 40.202 29.8208 40.1025C26.0225 39.9871 25.9271 38.8451 25.9271 38.8451C25.9314 39.3097 26.0604 39.7647 26.3006 40.1622H19.4032V43.5963C19.4032 42.2035 16.479 40.966 14.6355 42.1001C15.3539 42.1143 16.0389 42.4065 16.547 42.9154C17.0551 43.4242 17.3468 44.1103 17.361 44.8298C17.3616 45.1884 17.2914 45.5436 17.1546 45.875C17.0178 46.2065 16.8171 46.5076 16.5639 46.7612C16.3107 47.0148 16.01 47.2158 15.6791 47.3528C15.3482 47.4898 14.9935 47.56 14.6355 47.5595C13.9171 47.5453 13.232 47.2531 12.7239 46.7442C12.2159 46.2354 11.9241 45.5493 11.9099 44.8298C11.9099 40.6397 16.4631 39.3903 20.6508 38.3596C20.6508 38.3596 11.9536 38.0095 6.70905 43.9783C5.67724 45.1593 4.84879 46.5041 4.25762 47.9574C3.70944 48.9817 3.38827 50.1123 3.31599 51.2721C0.797019 48.2081 -0.657152 36.5173 7.86524 30.0989C5.48135 29.9317 -7.53466 42.7527 6.20843 57.7263C9.27967 61.1206 13.6064 63.6116 13.6064 68.9715C13.6064 76.1341 4.72645 75.8237 2.63658 72.8194C5.15953 77.5944 19.4112 75.4178 19.4112 69.445V82.9743C19.4112 92.0588 23.6942 94.8721 28.2276 96.1295C30.4208 96.7383 32.6894 96.989 34.5648 97.4705C36.4401 97.9519 37.6876 98.6125 38.1962 99.8819L38.6372 101L39.0782 99.862C39.5868 98.5926 40.8423 97.9281 42.7097 97.4506C44.5771 96.9731 46.8537 96.7184 49.0667 96.1096C53.5961 94.8521 57.8791 92.0349 57.8791 82.9544V69.3973C58.8685 70.8975 61.7808 73.1934 63.7991 74.1246C59.1347 70.2926 56.9693 67.4236 56.8978 63.5757C57.3189 57.209 65.2175 54.1053 66.6518 47.4123C67.5816 43.0352 63.823 40.1423 62.0152 39.2709C63.3462 39.1475 66.9856 41.4952 69.588 44.8019C69.6051 48.0497 68.4909 51.2018 66.4373 53.7153C64.7169 55.8482 61.9715 58.3789 61.3596 59.9626C60.6325 62.0079 60.9981 63.345 60.9981 63.345C60.9981 63.1221 61.8245 61.4747 62.484 60.4322C63.1436 59.3896 66.036 56.8828 68.2212 54.5828C70.1085 52.5932 71.0024 49.4098 71.368 47.6272C72.8261 50.6394 73.0168 54.0257 70.1005 56.9862C67.8835 59.2424 64.1646 62.1035 62.7502 65.442C61.9556 67.3122 61.8642 69.5087 63.2071 71.4108C66.4572 76.0067 71.2209 76.2733 74.6736 72.8274C73.4067 73.6604 71.926 74.1082 70.4104 74.1166C68.2848 74.2042 65.6983 72.8831 64.4388 69.835L64.4507 69.8231ZM6.66535 46.6602C6.85139 46.127 7.1195 45.6262 7.45998 45.176C8.0586 49.2719 10.4557 53.7233 14.6514 58.5301C9.75645 54.0138 7.12624 50.15 6.66535 46.6602ZM19.4032 57.802C18.0643 55.693 14.4726 52.7961 12.8555 49.7202C13.3521 50.2335 17.3293 51.6263 19.4032 48.2081V57.802ZM28.0965 41.7857C30.0274 42.2433 31.0445 42.2553 32.2842 41.7857H56.2144V59.4334C54.943 61.7971 54.943 64.605 56.2144 67.8574V76.1062L38.6332 58.4983L21.0481 76.1062V41.8056L28.0965 41.7857ZM48.7568 94.4821C46.5716 95.0869 44.3109 95.3376 42.4435 95.8191C40.8979 96.217 39.4875 96.794 38.6253 97.932C37.7631 96.794 36.3487 96.213 34.8071 95.8191C32.9397 95.3376 30.679 95.0909 28.4898 94.4821C24.6319 93.4077 21.5448 91.6688 21.1236 84.554L38.6054 67.0456L56.0873 84.554C55.7138 91.6887 52.6227 93.4316 48.7608 94.502L48.7568 94.4821ZM57.8474 57.802V48.228C59.9213 51.6462 63.8984 50.2534 64.3951 49.7401C62.782 52.816 59.1903 55.7129 57.8513 57.8218L57.8474 57.802ZM57.8474 37.4046C53.3537 37.8304 52.4359 38.0652 50.9857 37.9697C54.0681 37.2597 57.0184 36.0643 59.7267 34.4282C62.2695 33.7677 69.9217 36.3701 73.6843 42.9437C72.8897 35.2519 67.8597 32.0805 64.0772 31.8019L65.8334 30.6082C73.7439 31.8935 78.6428 43.2143 73.5095 52.6529C74.5584 47.6789 68.2967 36.4377 57.8593 37.4245L57.8474 37.4046Z" fill="white"/>
</svg>
